<svg xmlns="http://www.w3.org/2000/svg" width="91" height="91" viewBox="0 0 91 91">
    <g fill="none" fill-rule="evenodd">
        <g>
            <g>
                <g>
                    <g>
                        <path fill="#FFF" fill-opacity=".01" d="M0 0H90V90H0z" transform="translate(-644 -2358) translate(542.875 2330.043) translate(102 28.78)"/>
                        <g>
                            <path fill="#D9004F" d="M20.652 2.955l2.155-.323c11.63-1.745 23.457-1.745 35.088 0l2.155.323c9.146 1.372 16.325 8.551 17.697 17.697l.323 2.155c1.745 11.63 1.745 23.457 0 35.088l-.323 2.155c-1.372 9.146-8.551 16.325-17.697 17.697l-2.155.323c-11.631 1.745-23.457 1.745-35.088 0l-2.155-.323C11.506 76.375 4.327 69.196 2.955 60.05l-.323-2.155c-1.745-11.631-1.745-23.457 0-35.088l.323-2.155c1.372-9.146 8.551-16.325 17.697-17.697z" transform="translate(-644 -2358) translate(542.875 2330.043) translate(102 28.78) translate(4.5 4.5)"/>
                            <g>
                                <path d="M0 0L56.14 0 56.14 56.14 0 56.14z" transform="translate(-644 -2358) translate(542.875 2330.043) translate(102 28.78) translate(4.5 4.5) translate(12.28 12.28)"/>
                                <path fill="#FFF" d="M47.951 30.93c1.677-1.005 3.571-1.325 5.179-.195.85.6.894 1.904.124 2.613L40.66 48.008c-1.383 1.276-3.17 1.981-5.022 1.981H17.78c-.476 0-.932.194-1.263.537l-3.156 3.275L2.339 42.365l8.761-8.22c1.273-1.196 2.946-1.873 4.692-1.9 7.486-.118 11.77-.18 12.849-.184h.135c.106-.003.77-.013 3.09-.015h1.27c1.984.007 4.132.177 4.132 2.697 0 2.44-2.272 3.812-4.302 3.812h-5.8c-.468 0-.918.417-.918.953 0 .456.478.97.919.97l9.478-.002s9.63-8.542 11.306-9.547zM38.295 2.34c1.651 0 3.29.6 4.57 1.85 2.816 2.75 2.865 7.351.15 10.168L32.559 25.21 22.101 14.36c-2.715-2.818-2.666-7.419.15-10.17 1.28-1.25 2.919-1.85 4.57-1.85 1.86 0 3.737.76 5.136 2.213l.601.625.6-.623c1.4-1.454 3.278-2.215 5.137-2.215z" transform="translate(-644 -2358) translate(542.875 2330.043) translate(102 28.78) translate(4.5 4.5) translate(12.28 12.28)"/>
                            </g>
                        </g>
                    </g>
                </g>
            </g>
        </g>
    </g>
</svg>
