<svg xmlns="http://www.w3.org/2000/svg" width="91" height="91" viewBox="0 0 91 91">
    <g fill="none" fill-rule="evenodd">
        <g>
            <g>
                <g>
                    <g>
                        <path fill="#FFF" fill-opacity=".01" d="M0.219 0.219H90.219V90.219H0.219z" transform="translate(-264 -2358) translate(162.375 2330.043) translate(101 27.78) translate(.78 .78)"/>
                        <path fill="#008EFA" d="M25.37 7.674l2.156-.323c11.631-1.745 23.457-1.745 35.088 0l2.155.323c9.146 1.372 16.325 8.551 17.697 17.697l.323 2.155c1.745 11.631 1.745 23.457 0 35.088l-.323 2.155c-1.372 9.146-8.551 16.325-17.697 17.697l-2.155.323c-11.63 1.745-23.457 1.745-35.088 0l-2.155-.323C16.225 81.094 9.046 73.915 7.674 64.77l-.323-2.155c-1.745-11.63-1.745-23.457 0-35.088l.323-2.155c1.372-9.146 8.551-16.325 17.697-17.697z" transform="translate(-264 -2358) translate(162.375 2330.043) translate(101 27.78) translate(.78 .78)"/>
                        <g>
                            <path d="M0 0L57.6 0 57.6 57.6 0 57.6z" transform="translate(-264 -2358) translate(162.375 2330.043) translate(101 27.78) translate(.78 .78) translate(16.42 16.42)"/>
                            <path fill="#FFF" d="M31.68 31.355c1.325 0 2.4 1.075 2.4 2.4v16.722c0 1.325-1.075 2.4-2.4 2.4h-6c-1.325 0-2.4-1.075-2.4-2.4V33.755c0-1.325 1.075-2.4 2.4-2.4h6zM15.6 38.391c1.325 0 2.4 1.074 2.4 2.4v9.686c0 1.325-1.075 2.4-2.4 2.4h-6c-1.325 0-2.4-1.075-2.4-2.4V40.79c0-1.326 1.075-2.4 2.4-2.4h6zm32.16-14.316c1.325 0 2.4 1.075 2.4 2.4v24.002c0 1.325-1.075 2.4-2.4 2.4h-6c-1.325 0-2.4-1.075-2.4-2.4V26.475c0-1.325 1.075-2.4 2.4-2.4h6zM38.722 4.82l11.014 1.548c.525.074.89.56.817 1.084l-1.548 11.015c-.074.525-.56.89-1.084.817-.253-.036-.48-.17-.633-.373l-2.817-3.74-14.54 10.336-9.8-3.167-6.345 11.215-5.43-3.074 8.854-15.644 11.657 3.769 11.846-8.42-2.892-3.837c-.319-.424-.234-1.026.19-1.345.203-.153.458-.22.71-.184z" transform="translate(-264 -2358) translate(162.375 2330.043) translate(101 27.78) translate(.78 .78) translate(16.42 16.42)"/>
                        </g>
                    </g>
                </g>
            </g>
        </g>
    </g>
</svg>
