<svg xmlns="http://www.w3.org/2000/svg" width="91" height="91" viewBox="0 0 91 91">
    <g fill="none" fill-rule="evenodd">
        <g>
            <g>
                <g>
                    <g>
                        <path fill="#FFF" fill-opacity=".01" d="M0 0H90V90H0z" transform="translate(-644 -1938) translate(542.875 1910.155) translate(102 28.78)"/>
                        <g>
                            <path fill="#7E33CC" d="M20.652 2.955l2.155-.323c11.63-1.745 23.457-1.745 35.088 0l2.155.323c9.146 1.372 16.325 8.551 17.697 17.697l.323 2.155c1.745 11.63 1.745 23.457 0 35.088l-.323 2.155c-1.372 9.146-8.551 16.325-17.697 17.697l-2.155.323c-11.631 1.745-23.457 1.745-35.088 0l-2.155-.323C11.506 76.375 4.327 69.196 2.955 60.05l-.323-2.155c-1.745-11.631-1.745-23.457 0-35.088l.323-2.155c1.372-9.146 8.551-16.325 17.697-17.697z" transform="translate(-644 -1938) translate(542.875 1910.155) translate(102 28.78) translate(4.5 4.5)"/>
                            <g>
                                <path d="M0 0L56.14 0 56.14 56.14 0 56.14z" transform="translate(-644 -1938) translate(542.875 1910.155) translate(102 28.78) translate(4.5 4.5) translate(12.28 12.28)"/>
                                <path fill="#FFF" d="M35.088 17.053V7.018c0-1.287-1.053-2.34-2.34-2.34h-9.356c-1.287 0-2.34 1.053-2.34 2.34v10.035c0 .304.118.608.352.818l5.847 5.848c.468.468 1.193.468 1.661 0l5.848-5.848c.21-.21.328-.49.328-.818zm-18.035 4H7.018c-1.287 0-2.34 1.052-2.34 2.339v9.357c0 1.286 1.053 2.339 2.34 2.339h10.035c.304 0 .608-.117.818-.351l5.848-5.848c.468-.468.468-1.193 0-1.66l-5.848-5.849c-.21-.21-.49-.327-.818-.327zm4 18.035v10.035c0 1.286 1.052 2.339 2.339 2.339h9.357c1.286 0 2.339-1.053 2.339-2.34V39.089c0-.304-.117-.608-.351-.819l-5.848-5.848c-.468-.468-1.193-.468-1.66 0L21.38 38.27c-.21.21-.327.491-.327.819zM32.398 27.25c-.468.468-.468 1.193 0 1.661l5.848 5.848c.21.21.514.351.818.351h10.059c1.286 0 2.339-1.053 2.339-2.34v-9.356c0-1.286-1.053-2.339-2.34-2.339H39.089c-.328-.023-.608.094-.842.328l-5.848 5.847z" transform="translate(-644 -1938) translate(542.875 1910.155) translate(102 28.78) translate(4.5 4.5) translate(12.28 12.28)"/>
                            </g>
                        </g>
                    </g>
                </g>
            </g>
        </g>
    </g>
</svg>
