<svg xmlns="http://www.w3.org/2000/svg" width="90" height="91" viewBox="0 0 90 91">
    <g fill="none" fill-rule="evenodd">
        <g>
            <g>
                <g>
                    <g>
                        <g>
                            <path fill="#FFF" fill-opacity=".01" d="M0.335 0.335H90.335V90.335H0.335z" transform="translate(-141 -1638) translate(39 1610) translate(101 27.78) translate(.665 .665)"/>
                            <path fill="#00D170" d="M26.592 7.929l1.645-.26c11.769-1.858 23.757-1.858 35.526 0l1.645.26c9.61 1.517 17.146 9.054 18.663 18.663l.26 1.645c1.858 11.769 1.858 23.757 0 35.526l-.26 1.645c-1.517 9.61-9.054 17.146-18.663 18.663l-1.645.26c-11.769 1.858-23.757 1.858-35.526 0l-1.645-.26c-9.61-1.517-17.146-9.054-18.663-18.663l-.26-1.645c-1.858-11.769-1.858-23.757 0-35.526l.26-1.645c1.517-9.61 9.054-17.146 18.663-18.663z" transform="translate(-141 -1638) translate(39 1610) translate(101 27.78) translate(.665 .665)"/>
                            <g>
                                <path d="M0 0L59.834 0 59.834 59.834 0 59.834z" transform="translate(-141 -1638) translate(39 1610) translate(101 27.78) translate(.665 .665) translate(16 16)"/>
                                <path fill="#FFF" d="M47.992 9.972c1.032 0 1.87.837 1.87 1.87v13.384l.763 2.197h3.288c.516 0 .935.42.935.936v3.116c0 .516-.419.935-.935.935H52.28c.033.19.055.381.066.572l.009.276v17.85c0 2.07-1.696 3.74-3.74 3.74-2.003 0-3.631-1.588-3.734-3.543l-.006-.197v-1.247H14.958v1.247c0 2.07-1.67 3.74-3.74 3.74-2.002 0-3.63-1.565-3.734-3.541l-.005-.199v-17.85c0-.29.026-.572.073-.848h-1.63c-.517 0-.936-.419-.936-.935V28.36c0-.517.419-.935.935-.935h3.287l.764-2.2V11.842c0-1.033.837-1.87 1.87-1.87h36.15zM16.205 34.903c-2.07 0-3.74 1.67-3.74 3.74 0 2.069 1.67 3.74 3.74 3.74 2.07 0 3.74-1.671 3.74-3.74 0-2.07-1.67-3.74-3.74-3.74zm27.424 0c-2.07 0-3.74 1.67-3.74 3.74 0 2.069 1.67 3.74 3.74 3.74 2.07 0 3.74-1.671 3.74-3.74 0-2.07-1.67-3.74-3.74-3.74zm-1.795-13.712H18c-1.072 0-2.02.698-2.368 1.695l-2.758 8.294c-.031.095-.047.195-.047.295 0 .516.418.935.934.935h32.311c.1 0 .2-.016.295-.048.49-.163.755-.692.593-1.182l-2.758-8.294c-.349-.997-1.296-1.695-2.368-1.695z" transform="translate(-141 -1638) translate(39 1610) translate(101 27.78) translate(.665 .665) translate(16 16)"/>
                            </g>
                        </g>
                    </g>
                </g>
            </g>
        </g>
    </g>
</svg>
