<svg width="655" height="146" viewBox="0 0 655 146" xmlns="http://www.w3.org/2000/svg" xmlns:xlink="http://www.w3.org/1999/xlink"><defs><path id="a" d="M16.81 7.583l13.238 3.396 13.238-3.397 4.41 8.645 12.268 1.398-.248-7.71L48.68 8.418 44.76.44 30.074 4.66h-.054L15.334.44l-3.916 7.98L.38 9.914l-.248 7.71L12.4 16.23l4.41-8.645z"/><path id="c" d="M16.81 7.583l13.238 3.396 13.238-3.397 4.41 8.645 12.268 1.398-.248-7.71L48.68 8.418 44.76.44 30.074 4.66h-.054L15.334.44l-3.916 7.98L.38 9.914l-.248 7.71L12.4 16.23l4.41-8.645z"/><path id="e" d="M16.81 7.583l13.238 3.396 13.238-3.397 4.41 8.645 12.268 1.398-.248-7.71L48.68 8.418 44.76.44 30.074 4.66h-.054L15.334.44l-3.916 7.98L.38 9.914l-.248 7.71L12.4 16.23l4.41-8.645z"/><path id="g" d="M16.81 7.583l13.238 3.396 13.238-3.397 4.41 8.645 12.268 1.398-.248-7.71L48.68 8.418 44.76.44 30.074 4.66h-.054L15.334.44l-3.916 7.98L.38 9.914l-.248 7.71L12.4 16.23l4.41-8.645z"/><path id="i" d="M16.81 7.583l13.238 3.396 13.238-3.397 4.41 8.645 12.268 1.398-.248-7.71L48.68 8.418 44.76.44 30.074 4.66h-.054L15.334.44l-3.916 7.98L.38 9.914l-.248 7.71L12.4 16.23l4.41-8.645z"/><path id="k" d="M16.81 7.583l13.238 3.396 13.238-3.397 4.41 8.645 12.268 1.398-.248-7.71L48.68 8.418 44.76.44 30.074 4.66h-.054L15.334.44l-3.916 7.98L.38 9.914l-.248 7.71L12.4 16.23l4.41-8.645z"/><path id="m" d="M16.81 7.583l13.238 3.396 13.238-3.397 4.41 8.645 12.268 1.398-.248-7.71L48.68 8.418 44.76.44 30.074 4.66h-.054L15.334.44l-3.916 7.98L.38 9.914l-.248 7.71L12.4 16.23l4.41-8.645z"/><path id="o" d="M16.81 7.583l13.238 3.396 13.238-3.397 4.41 8.645 12.268 1.398-.248-7.71L48.68 8.418 44.76.44 30.074 4.66h-.054L15.334.44l-3.916 7.98L.38 9.914l-.248 7.71L12.4 16.23l4.41-8.645z"/><path id="q" d="M16.81 7.583l13.238 3.396 13.238-3.397 4.41 8.645 12.268 1.398-.248-7.71L48.68 8.418 44.76.44 30.074 4.66h-.054L15.334.44l-3.916 7.98L.38 9.914l-.248 7.71L12.4 16.23l4.41-8.645z"/><path id="s" d="M16.81 7.583l13.238 3.396 13.238-3.397 4.41 8.645 12.268 1.398-.248-7.71L48.68 8.418 44.76.44 30.074 4.66h-.054L15.334.44l-3.916 7.98L.38 9.914l-.248 7.71L12.4 16.23l4.41-8.645z"/><path id="u" d="M16.81 7.583l13.238 3.396 13.238-3.397 4.41 8.645 12.268 1.398-.248-7.71L48.68 8.418 44.76.44 30.074 4.66h-.054L15.334.44l-3.916 7.98L.38 9.914l-.248 7.71L12.4 16.23l4.41-8.645z"/><path id="w" d="M16.81 7.583l13.238 3.396 13.238-3.397 4.41 8.645 12.268 1.398-.248-7.71L48.68 8.418 44.76.44 30.074 4.66h-.054L15.334.44l-3.916 7.98L.38 9.914l-.248 7.71L12.4 16.23l4.41-8.645z"/><path id="y" d="M16.81 7.583l13.238 3.396 13.238-3.397 4.41 8.645 12.268 1.398-.248-7.71L48.68 8.418 44.76.44 30.074 4.66h-.054L15.334.44l-3.916 7.98L.38 9.914l-.248 7.71L12.4 16.23l4.41-8.645z"/><path id="A" d="M16.81 7.583l13.238 3.396 13.238-3.397 4.41 8.645 12.268 1.398-.248-7.71L48.68 8.418 44.76.44 30.074 4.66h-.054L15.334.44l-3.916 7.98L.38 9.914l-.248 7.71L12.4 16.23l4.41-8.645z"/><path id="C" d="M16.81 7.583l13.238 3.396 13.238-3.397 4.41 8.645 12.268 1.398-.248-7.71L48.68 8.418 44.76.44 30.074 4.66h-.054L15.334.44l-3.916 7.98L.38 9.914l-.248 7.71L12.4 16.23l4.41-8.645z"/><path id="E" d="M16.81 7.583l13.238 3.396 13.238-3.397 4.41 8.645 12.268 1.398-.248-7.71L48.68 8.418 44.76.44 30.074 4.66h-.054L15.334.44l-3.916 7.98L.38 9.914l-.248 7.71L12.4 16.23l4.41-8.645z"/><path id="G" d="M16.81 7.583l13.238 3.396 13.238-3.397 4.41 8.645 12.268 1.398-.248-7.71L48.68 8.418 44.76.44 30.074 4.66h-.054L15.334.44l-3.916 7.98L.38 9.914l-.248 7.71L12.4 16.23l4.41-8.645z"/></defs><g fill="none" fill-rule="evenodd"><path d="M653.907 144.214H.057" stroke="#FFF" stroke-width="3"/><path d="M416.382 135.32c1.127 0 2.043.915 2.043 2.04a2.046 2.046 0 0 1-2.043 2.044 2.045 2.045 0 0 1-2.042-2.044c0-1.125.916-2.04 2.042-2.04zm0-1.7a3.742 3.742 0 1 0 3.743 3.74 3.742 3.742 0 0 0-3.743-3.74zM388.25 135.32c1.127 0 2.045.915 2.045 2.04a2.047 2.047 0 0 1-2.046 2.044 2.043 2.043 0 0 1 0-4.084zm0-1.7a3.74 3.74 0 0 0-3.738 3.74c0 2.07 1.67 3.744 3.737 3.744a3.745 3.745 0 0 0 3.745-3.744c0-2.06-1.68-3.74-3.746-3.74z" fill="#FFF"/><path d="M374.73 124.25a.753.753 0 0 0-.75.752v12.46c0 .412.337.75.75.75h6.938c.413 0 .71-.28.657-.62v-.325a5.91 5.91 0 0 1 5.914-5.912 5.91 5.91 0 0 1 5.913 5.912v.324c-.052.343.244.622.657.622h14.995c.413 0 .71-.28.66-.62v-.325a5.91 5.91 0 0 1 5.912-5.912 5.91 5.91 0 0 1 5.914 5.912v.324c-.05.343.246.622.66.622h5.67c.414 0 .752-.338.752-.75v-4.2c0-.413.314-.75.698-.75.385 0 .7-.34.7-.752v-1.135c0-.413-.315-.75-.7-.75-.384 0-.698-.34-.698-.752v-4.232a.75.75 0 0 0-.75-.748l-9.975.03c-.413 0-.903-.3-1.09-.67l-5.505-10.854c-.188-.368-.678-.67-1.09-.67h-24.81c-.412 0-.912.296-1.11.658l-6 10.957c-.197.362-.697.658-1.11.658h-3.202zm27.866-.04a.757.757 0 0 1-.75-.753v-7.223c0-.413.337-.752.75-.754l6.01-.02c.414-.003.902.3 1.085.67l3.69 7.448c.182.37-.006.672-.42.67l-10.364-.037zm-19.13.004c-.414 0-.59-.297-.395-.66l4.012-7.404c.196-.363.695-.66 1.108-.66h9.498c.413 0 .75.338.75.75v7.224c0 .413-.337.75-.75.75h-14.223zM411.5 108.93h-9.125M376.452 130.52h-6.01" stroke="#FFF" stroke-width="1.7"/><path stroke="#FFF" d="M404.946 127.706h3.14v3.133h-3.14zM396.2 127.706h3.14v3.133h-3.14zM400.57 132.073h3.142v3.14h-3.14z"/><g transform="translate(431 89)" stroke="#FFF"><path d="M14.94 23.126v25.578M23.036 21.087c0 1.12-.918 2.04-2.04 2.04H8.93c-1.122 0-2.77-.556-3.663-1.235l-3.872-2.95c-.893-.68-.923-1.83-.066-2.554l4.004-3.393c.856-.727 2.475-1.318 3.596-1.318h12.068c1.12 0 2.04.918 2.04 2.04v7.37h-.002zM14.94 36.263c0 1.12.917 2.04 2.04 2.04h12.065c1.12 0 2.77-.556 3.662-1.235l3.873-2.95c.893-.68.923-1.83.066-2.554L32.64 28.17c-.856-.726-2.475-1.317-3.596-1.317H16.978c-1.122 0-2.04.918-2.04 2.04v7.37z" stroke-width="1.5"/><path d="M29.553 29.565l3.876 3.014-3.877 3.144M8.648 14.323l-3.876 3.012 3.876 3.144"/><path stroke-width="1.5" d="M11.892 48.628h6.095v3.477h-6.095z"/><ellipse stroke-width="1.5" cx="14.939" cy="2.667" rx="2.027" ry="1.773"/><path d="M14.94 4.194v7.483" stroke-width="1.5"/></g><path d="M562.81 8.583l13.238 3.396 13.238-3.397 4.41 8.645 12.268 1.398-.248-7.71-11.037-1.497-3.92-7.98-14.685 4.22h-.054l-14.687-4.22-3.916 7.98-11.038 1.495-.248 7.71L558.4 17.23l4.41-8.645z" stroke="#FFF"/><g transform="translate(546 1)"><mask id="b" fill="#fff"><use xlink:href="#a"/></mask><path d="M3.14-10.546v35.62" stroke="#FFF" mask="url(#b)"/></g><g transform="translate(546 1)"><mask id="d" fill="#fff"><use xlink:href="#c"/></mask><path d="M6.507-10.546v35.62" stroke="#FFF" mask="url(#d)"/></g><g transform="translate(546 1)"><mask id="f" fill="#fff"><use xlink:href="#e"/></mask><path d="M9.876-10.546v35.62" stroke="#FFF" mask="url(#f)"/></g><g transform="translate(546 1)"><mask id="h" fill="#fff"><use xlink:href="#g"/></mask><path d="M13.243-10.546v35.62" stroke="#FFF" mask="url(#h)"/></g><g transform="translate(546 1)"><mask id="j" fill="#fff"><use xlink:href="#i"/></mask><path d="M16.612-10.546v35.62" stroke="#FFF" mask="url(#j)"/></g><g transform="translate(546 1)"><mask id="l" fill="#fff"><use xlink:href="#k"/></mask><path d="M19.98-10.546v35.62" stroke="#FFF" mask="url(#l)"/></g><g transform="translate(546 1)"><mask id="n" fill="#fff"><use xlink:href="#m"/></mask><path d="M23.35-10.546v35.62" stroke="#FFF" mask="url(#n)"/></g><g transform="translate(546 1)"><mask id="p" fill="#fff"><use xlink:href="#o"/></mask><path d="M26.72-10.546v35.62" stroke="#FFF" mask="url(#p)"/></g><g transform="translate(546 1)"><mask id="r" fill="#fff"><use xlink:href="#q"/></mask><path d="M30.087-10.546v35.62" stroke="#FFF" mask="url(#r)"/></g><g transform="translate(546 1)"><mask id="t" fill="#fff"><use xlink:href="#s"/></mask><path d="M33.455-10.546v35.62" stroke="#FFF" mask="url(#t)"/></g><g transform="translate(546 1)"><mask id="v" fill="#fff"><use xlink:href="#u"/></mask><path d="M36.824-10.546v35.62" stroke="#FFF" mask="url(#v)"/></g><g transform="translate(546 1)"><mask id="x" fill="#fff"><use xlink:href="#w"/></mask><path d="M40.194-10.546v35.62" stroke="#FFF" mask="url(#x)"/></g><g transform="translate(546 1)"><mask id="z" fill="#fff"><use xlink:href="#y"/></mask><path d="M43.56-10.546v35.62" stroke="#FFF" mask="url(#z)"/></g><g transform="translate(546 1)"><mask id="B" fill="#fff"><use xlink:href="#A"/></mask><path d="M46.93-10.546v35.62" stroke="#FFF" mask="url(#B)"/></g><g transform="translate(546 1)"><mask id="D" fill="#fff"><use xlink:href="#C"/></mask><path d="M50.3-10.546v35.62" stroke="#FFF" mask="url(#D)"/></g><g transform="translate(546 1)"><mask id="F" fill="#fff"><use xlink:href="#E"/></mask><path d="M53.668-10.546v35.62" stroke="#FFF" mask="url(#F)"/></g><g transform="translate(546 1)"><mask id="H" fill="#fff"><use xlink:href="#G"/></mask><path d="M57.035-10.546v35.62" stroke="#FFF" mask="url(#H)"/></g><path d="M562.81 8.583l13.238 3.396 13.238-3.397 4.41 8.645 12.268 1.398-.248-7.71-11.037-1.497-3.92-7.98-14.685 4.22h-.054l-14.687-4.22-3.916 7.98-11.038 1.495-.248 7.71L558.4 17.23l4.41-8.645z" stroke="#FFF"/><path d="M562.612 8.548v18.594M589 8.548v18.594M576.02 43.392l12.6 14.85 2.936 85.972h61.788L607.57 69.456 605.7 10.91 594.67 9.416l-3.915-7.975-14.68 4.22h-.054l-14.678-4.22-3.914 7.975-11.034 1.496-1.867 58.546-45.774 74.758h61.788l2.937-85.973 12.6-14.848h-.056z" stroke="#FFF" stroke-width="1.5"/><g stroke="#FFF"><path d="M588.723 60.368L572.97 46.59M588.48 62.536L570.11 50.77"/></g><g stroke="#FFF"><path d="M563.435 60.368l15.75-13.777M563.678 62.536L582.25 50.64"/></g><g stroke="#FFF"><path d="M560.884 138.782h-13.33M560.984 135.33h-12.192M561.233 131.874h-11.53M545.646 46.228h10.216M545.567 42.772h9.345M545.378 39.32h8.836"/></g><g stroke="#FFF"><path d="M591.5 138.782h13.333M591.4 135.33h12.193M591.152 131.874h11.53M606.74 46.228h-10.217M606.817 42.772h-9.343M607.008 39.32h-8.836"/></g><g stroke="#FFF"><path d="M628.188 144.214h.82M619.675 113.333l7.35-12.1-2.013-3.29-6.59 10.847 1.253 4.543zM620.927 117.878l8.114-13.356-2.014-3.29-7.35 12.1 1.25 4.546zM615.915 99.702l5.067-8.34-2.014-3.29-4.305 7.085 1.252 4.545zM622.18 122.42l8.876-14.607-2.015-3.29-8.113 13.355 1.254 4.543zM618.42 108.79l6.592-10.848-2.015-3.29-5.828 9.593 1.25 4.545z"/><path d="M617.17 104.245l5.827-9.594-2.015-3.288-5.067 8.34 1.254 4.543zM633.02 144.214l10.124-16.66-2.016-3.29-12.12 19.95h4.013zM623.433 126.966l9.637-15.863-2.014-3.29-8.875 14.608 1.253 4.546zM647.173 134.134l-6.126 10.08h4.015l4.125-6.79-2.014-3.29zM614.663 95.157l4.305-7.086-2.015-3.29-3.544 5.834 1.253 4.543zM625.938 136.052l11.162-18.367-2.015-3.293-10.398 17.117 1.25 4.542z"/><path d="M624.687 131.51l10.398-17.118-2.015-3.29-9.637 15.864 1.254 4.543zM627.19 140.597l11.924-19.623-2.014-3.29-11.162 18.368 1.253 4.545zM649.187 137.425l-4.125 6.79h4.012l2.126-3.5-2.013-3.29z"/><path d="M651.2 140.714l-2.126 3.5h4.27l-2.144-3.5zM641.128 124.263l-2.014-3.29-11.923 19.624.998 3.617h.82l12.12-19.95zM645.157 130.845l-8.123 13.37h4.013l6.126-10.08-2.016-3.29z"/><path d="M643.144 127.554l-10.123 16.66h4.014l8.123-13.37-2.013-3.29zM610.903 81.526l2.02-3.326-2.012-3.29-1.26 2.07 1.253 4.546z"/><path d="M612.157 86.07l2.78-4.58-2.013-3.29-2.02 3.326 1.253 4.543zM613.41 90.614l3.543-5.834-2.015-3.29-2.78 4.58 1.25 4.544zM609.65 76.98l1.26-2.07-2.014-3.29-1.206-1.605 1.96 6.966z"/></g><g stroke="#FFF"><path d="M523.907 144.214h-.817M532.422 113.333l-7.352-12.1 2.015-3.29 6.59 10.847-1.253 4.543z"/><path d="M531.17 117.878l-8.114-13.356 2.014-3.29 7.352 12.1-1.252 4.546zM536.18 99.702l-5.066-8.34 2.015-3.29 4.304 7.085-1.253 4.545z"/><path d="M529.916 122.42l-8.875-14.607 2.016-3.29 8.114 13.355-1.254 4.543zM533.676 108.79l-6.59-10.848 2.014-3.29 5.828 9.593-1.252 4.545zM534.928 104.245L529.1 94.65l2.014-3.288 5.067 8.34-1.252 4.543zM519.075 144.214l-10.122-16.66 2.015-3.29 12.122 19.95h-4.015z"/><path d="M528.664 126.966l-9.638-15.863 2.015-3.29 8.876 14.608-1.252 4.546zM504.924 134.134l6.126 10.08h-4.015l-4.126-6.79 2.014-3.29zM537.434 95.157l-4.305-7.086 2.014-3.29 3.543 5.834-1.253 4.543zM526.158 136.052l-11.16-18.367 2.014-3.293 10.398 17.117-1.252 4.542z"/><path d="M527.41 131.51l-10.398-17.118 2.014-3.29 9.638 15.864-1.254 4.543zM524.905 140.597l-11.923-19.623 2.015-3.29 11.16 18.368-1.252 4.545zM502.91 137.425l4.125 6.79h-4.013l-2.126-3.5 2.013-3.29z"/><path d="M500.896 140.714l2.126 3.5h-4.27l2.144-3.5zM510.968 124.263l2.014-3.29 11.923 19.624-.998 3.617h-.817l-12.122-19.95zM506.938 130.845l8.125 13.37h-4.013l-6.126-10.08 2.014-3.29zM508.953 127.554l10.122 16.66h-4.012l-8.125-13.37 2.015-3.29zM541.192 81.526l-2.02-3.326 2.014-3.29 1.258 2.07-1.252 4.546z"/><path d="M539.94 86.07l-2.782-4.58 2.015-3.29 2.02 3.326-1.254 4.543zM538.687 90.614l-3.543-5.834 2.014-3.29 2.78 4.58-1.25 4.544zM542.444 76.98l-1.258-2.07 2.014-3.29 1.206-1.605-1.962 6.966z"/></g><path d="M566.072 101.722l1.042-34.813 8.852-6.597 9.715 7.4" stroke="#FFF" stroke-width="1.5" stroke-dasharray="1.3525,3.5774"/></g></svg>